<svg id="Capa_1" data-name="Capa 1" xmlns="http://www.w3.org/2000/svg" viewBox="0 0 1859 624"><defs><style>.cls-1,.cls-3,.cls-4{fill:#fff;}.cls-1,.cls-2{stroke:#fff;stroke-miterlimit:10;}.cls-3{font-size:125.4px;}.cls-3,.cls-4{font-family:BookmanOldStyle-Bold, Bookman Old Style;font-weight:700;}.cls-4{font-size:42.93px;}</style></defs><rect x="-11.5" y="12" width="1920" height="600" rx="12"/><path class="cls-1" d="M412.4,269.33H776.9a50.76,50.76,0,0,0,3.32-4.34s1.08-1.6,2-3.27c.49-.84.71-6.25,0-14.76-.43-5.16-1.19-11.46-2.44-18.57-1-5.45-2.2-11.36-3.8-17.61-1.71-6.71-3.84-13.8-6.45-21.08-2.29-6.41-5-13-8.09-19.56a193.1,193.1,0,0,0-14.26-25.23q-4-6-8.67-11.82a166.74,166.74,0,0,0-11.13-12.56,158.19,158.19,0,0,0-14.35-12.94c-1.18-.94-2.82-2.22-5-3.77-2.92-2.13-6.77-4.77-11.61-7.75C692.11,93.36,686.65,90,680,86.5A182.36,182.36,0,0,0,655.4,75.78c-4.71-1.65-10.33-3.4-16.79-5-4.54-1.12-9.49-2.16-14.84-3-5.7-.93-11.84-1.66-18.4-2.1-.79-.08-1.91-.19-3.24-.29-3.9-.31-7.74-.46-11.5-.47-2.77,0-5.49.07-8.18.21a163.48,163.48,0,0,0-32.5,5.1A179,179,0,0,0,531.65,76a197.21,197.21,0,0,0-18.74,8.18c-4.81,2.41-8.59,4.52-11.17,6Q494.9,94,488.69,98.22c-4.14,2.81-8.07,5.75-11.81,8.78a173.72,173.72,0,0,0-22.47,21.9,183.18,183.18,0,0,0-15.21,20.56,195.2,195.2,0,0,0-12.1,22A213.84,213.84,0,0,0,416,200.24a226.32,226.32,0,0,0-7,29.81c-1.17,7.19-1.81,13.41-2.12,18.31-.43,6.81-.23,11,.08,11.67a69.32,69.32,0,0,0,3.33,6.16C411.17,267.51,411.89,268.59,412.4,269.33Z"/><path class="cls-2" d="M429.37,245.66c.08-1.23.18-2.62.31-4.15.16-1.72.35-3.62.6-5.66,0,0,.88-7.12,2.37-14.17a171,171,0,0,1,7.45-25.27,178.63,178.63,0,0,1,12-25.28A188.32,188.32,0,0,1,476,138.3a142.16,142.16,0,0,1,18.24-17.22,152.33,152.33,0,0,1,15.35-10,155.48,155.48,0,0,1,22.32-10.38,170.76,170.76,0,0,1,25-7.17c5.19-1.08,10.18-1.88,14.89-2.48a237.25,237.25,0,0,1,28-1.74l3.84,0a126.71,126.71,0,0,1,21.88,2.93c5.39,1.12,11.48,2.63,18,4.66a193.65,193.65,0,0,1,21.75,8.2,172.91,172.91,0,0,1,21.34,11.42,157,157,0,0,1,16.17,11.66,149.18,149.18,0,0,1,27.65,30,158.09,158.09,0,0,1,12.88,22.24A172.31,172.31,0,0,1,751.49,201a183.42,183.42,0,0,1,5.69,22.16c1,5.27,1.63,9.9,2,13.66.44,4,.62,7,.71,8.8H429.37Z"/><path class="cls-1" d="M444.11,441.59a50.14,50.14,0,0,1,6.33-1.39c10.36-1.58,20.75-.27,31.12-.35,9.55-.07,19.08-.26,28.66-.26,27.62,0,60.77,0,93.28.05l59.32.12,29.3.08,25,.08c7.45,0,15-.32,22.46.06a34.38,34.38,0,0,1,11.83,2.82,50.25,50.25,0,0,1,10.68,6.38c.77.58,1.53,1.2,2.29,1.86a49.2,49.2,0,0,1,6.25,6.57,55,55,0,0,1,4.53,6.73c2,3.58,2.61,8.06,3.2,12a154,154,0,0,1,1.45,17.55c.08,2.51-.07,14.69-.52,18.18-1.14,8.73-6.8,16.5-13.56,22.34a85.24,85.24,0,0,1-12.15,9,36.88,36.88,0,0,1-12.42,4.84c-6.07,1.05-12.53.45-18.67.54-8.86.12-20.08.23-32.89.33-20.63.15-45.39.27-71.12.33s-52.64,0-77.19-.05c-9.44,0-18.56-.09-27.15-.16-5.47,0-10.73-.09-15.74-.15-4.37,0-8.54-.1-12.49-.15-5.75-.09-11-.18-15.71-.29-13.35-.3-20-.51-23.87-1.28-.89-.18-10.29-2.14-17.87-6.76S416.33,528.85,413.66,521c-3.27-9.66-3.49-19.91-3.55-30,0-6.35-.89-12.19.94-18.48,2.32-8,7.32-14.15,13.59-19.73A49.57,49.57,0,0,1,444.11,441.59Z"/><path class="cls-1" d="M426.69,358.92c1.68-.61,2.66-.22,7.05-.32,3-.06,6.83-.12,11.44-.17,7.31-.09,16.52-.17,27.16-.24,12.85-.09,27.79-.16,44-.22,14-.05,29-.1,44.31-.13,18.94,0,38.47-.08,57.54-.1H645c14.58,0,28.57,0,41.45,0,8.25,0,16,0,23.23,0,10.6,0,19.91,0,27.52.07l11.79.06,5.48.05c2.88,0,4.31.08,4.62.12a9.35,9.35,0,0,1,3.87,1.62,12.08,12.08,0,0,1,4.35,5.28,9.59,9.59,0,0,1,.71,4.09,10.36,10.36,0,0,1-.34,2.09,11,11,0,0,1-1.18,2.71,11.18,11.18,0,0,1-2.63,3,7.94,7.94,0,0,1-3,1.51,16.31,16.31,0,0,1-2.84.38c-1.44.09-3.4.17-5.83.25s-5.7.16-9.3.23c-6.44.13-14.41.23-23.57.32-8,.08-16.88.14-26.45.19-8.34,0-17.21.07-26.44.09-8.09,0-16.46,0-25,0-12.35,0-25.08,0-37.88,0l-27.52,0c-12.37,0-24.62-.07-36.45-.13L512,379.53c-11.23-.07-21.82-.14-31.45-.22-10.71-.09-20.25-.19-28.22-.29-6.11-.08-11.29-.16-15.37-.24l-5.63-.14a36.69,36.69,0,0,1-4.65-.29,7.94,7.94,0,0,1-2.82-1.35,10.41,10.41,0,0,1-2.29-2.3,11.15,11.15,0,0,1-1.11-1.86,10.21,10.21,0,0,1-.93-3.78,9.35,9.35,0,0,1,.31-2.78,10.28,10.28,0,0,1,1.86-3.69,12,12,0,0,1,2.16-2.12A10.77,10.77,0,0,1,426.69,358.92Z"/><path class="cls-1" d="M468.64,217.75a9.7,9.7,0,0,1-1.76,2.3c-1.84,2.08-4.66,4.55-8,4.48s-6.09-2.59-7.84-4.75c-.95-1.16-2.33-2.62-2.43-4.12a30.2,30.2,0,0,1,.76-6.19,112.14,112.14,0,0,1,2.55-12.29A115.11,115.11,0,0,1,461,173.7q2.22-4.27,4.8-8.37a119.27,119.27,0,0,1,15.48-19.6c6.17-6.34,13.08-11.56,20.26-16.8l9.81-7.16c3.56-2.6,12.33-10,17.18-6.26a4.52,4.52,0,0,1,.49.25,8.6,8.6,0,0,1,3.56,4.2,24.39,24.39,0,0,1,1.71,6.86c.15,1.11.22,2.21.38,3.33a3.76,3.76,0,0,1-.36,2.62c-1,1.55-3.7,2.9-5.23,4-2.83,2-5.72,3.86-8.62,5.74a198.73,198.73,0,0,0-17,11.79A90.25,90.25,0,0,0,480,182.77a81.47,81.47,0,0,0-7.42,19.52c-.7,3.12-1.15,6.3-1.89,9.41A23,23,0,0,1,468.64,217.75Z"/><path class="cls-2" d="M444.59,463c3.08-1.2,6.07-.84,9.3-.89l7.49-.1,11.54-.11c9.88-.08,22-.17,35.52-.25,11.57-.07,24.2-.14,37.39-.2l36.22-.16,18.1-.07c12.59,0,25.1-.08,37.17-.1L655,461l27.16,0h23.83c8.34,0,15.45,0,21,.07,2.11,0,4.23.06,6.35.09,4,0,7.27.17,10.7,2.27,1.28.78,2.57,1.54,3.8,2.41a39,39,0,0,1,6.75,6.06,33.21,33.21,0,0,1,2.42,3.14,11.63,11.63,0,0,1,1.74,3.53,18.8,18.8,0,0,1,.3,3.75c.12,2.29.18,5.17.18,8.28,0,2.79,0,5.75-.14,8.63-.07,2.33-.18,4.6-.32,6.67-.22,3.32-.1,6.9-1.87,9.87a28.29,28.29,0,0,1-4,4.87c-1.79,1.9-3.66,3.85-6.11,4.89a15.22,15.22,0,0,1-4.68,1,81.54,81.54,0,0,1-8.42,0c-2.73-.05-5.44.12-8.17.15l-17.62.18c-11.92.1-26.05.2-41.46.29l-25.26.13c-13,.07-26.48.12-40,.17L573,527.6l-38.59.1-21.44,0-24.78,0H472c-6.17,0-11.33,0-15.25,0-1.36,0-2.74,0-4.11,0s-3.14.21-4.56-.23A6,6,0,0,1,447,527a41.34,41.34,0,0,1-7.8-4.91,36.61,36.61,0,0,1-7.16-7.92,10.09,10.09,0,0,1-1.5-5.45c-.15-2.2-.19-4.42-.21-6.63,0-1.79,0-3.7,0-5.64,0-4.62.14-9.43.24-13.3.07-2.47-.25-5.27.47-7.66a10.76,10.76,0,0,1,2.84-4.3C436.89,468,440.33,464.61,444.59,463Z"/><path class="cls-1" d="M429.37,336.94a11,11,0,0,0,4.66-.85,68.29,68.29,0,0,0,6.53-2.95c3.73-1.89,7.95-4.25,12-6.62,3.34-1.93,6.59-3.87,9.43-5.55,5-3,8.72-5.16,9.33-5.16,1.09,0,3.75,1.24,7.25,3.16,3.8,2.08,8.59,4.94,13.43,7.85,3.22,1.92,6.46,3.87,9.45,5.61,6.06,3.52,11.08,6.2,12.75,6.2.92,0,3-.87,5.65-2.25,5.67-2.89,14.27-8,21.65-12.24,6.49-3.69,12-6.63,13.8-6.64,1,0,4.09,1.55,8.2,3.81,7.07,3.89,17.12,9.88,24.58,13.7,4.26,2.18,7.68,3.65,9.21,3.62a12.46,12.46,0,0,0,3.84-1.57c5.51-2.91,15.38-9.26,23.56-14.11,5.95-3.54,11-6.27,12.8-6.29,1.08,0,3.79,1.23,7.34,3.12,5.22,2.78,12.25,7,18.59,10.59,7.1,4.07,13.33,7.45,15.17,7.42,1.18,0,6.3-3.2,12.55-7.18,4.61-2.94,9.85-6.31,14.56-9.18,6-3.63,11.12-6.44,13.09-6.46,2.44,0,6.21,1.83,10.54,4.52,1.84,1.15,3.78,2.44,5.77,3.8,4,2.75,8.16,5.78,12,8.42,4.22,2.89,8.07,5.32,10.91,6.43a7.49,7.49,0,0,0,3.64.49,8.94,8.94,0,0,0,4.45-1.72,12.06,12.06,0,0,0,3.59-4.19,11.26,11.26,0,0,0,1.17-5.05,8.78,8.78,0,0,0-2.07-5.94,18.4,18.4,0,0,0-2.83-2.37c-1.07-.75-2.39-1.64-3.91-2.64-5.56-3.64-13.76-8.68-21.55-13.24-2.5-1.47-5-2.89-7.27-4.2q-2.17-1.23-4.16-2.31c-5.45-3-9.49-5-10.31-4.82-1.3.22-6.75,3.7-13.26,7.93s-14.12,9.22-19.67,12.42c-3.48,2-6.15,3.32-7.27,3.31s-4.77-2.29-9.66-5.43c-5.23-3.37-11.75-7.73-17.57-11.34-6.25-3.88-11.7-6.89-13.87-6.89-1.4,0-5,1.85-9.43,4.49-8,4.73-18.83,12-25.39,15.81-2.65,1.53-4.6,2.51-5.38,2.52-1.17,0-4.59-1.78-9-4.37-8.21-4.79-19.89-12.31-27.09-16.1-2.76-1.46-4.87-2.36-5.87-2.35-1.71,0-6.37,2.52-12,5.88-7.54,4.5-16.79,10.53-22.91,14-3.05,1.76-5.31,2.89-6.21,2.9-1.77,0-6.41-2.38-12-5.63-6.8-4-15-9.23-21-12.88-4-2.41-7-4.12-8.09-4.31-.85-.16-8.92,3.69-18.45,8.58-3.74,1.91-7.7,4-11.53,6-3.13,1.68-6.17,3.34-8.95,4.9-2.6,1.47-6.34,3.59-9.13,5.4a14.83,14.83,0,0,0-3.76,3,14.44,14.44,0,0,0-1.8,5.6,9.91,9.91,0,0,0,1.8,7.08A11.1,11.1,0,0,0,429.37,336.94Z"/><rect class="cls-1" x="420.44" y="403.71" width="27.7" height="19.44" rx="5.67"/><rect class="cls-1" x="464.21" y="403.71" width="27.7" height="19.44" rx="5.67"/><rect class="cls-1" x="511.56" y="403.71" width="27.7" height="19.44" rx="5.67"/><rect class="cls-1" x="560.7" y="403.71" width="27.7" height="19.44" rx="5.67"/><rect class="cls-1" x="606.26" y="403.71" width="27.7" height="19.44" rx="5.67"/><rect class="cls-1" x="654.51" y="403.71" width="27.7" height="19.44" rx="5.67"/><rect class="cls-1" x="700.96" y="403.71" width="27.7" height="19.44" rx="5.67"/><rect class="cls-1" x="744.74" y="403.71" width="27.7" height="19.44" rx="5.67"/><text class="cls-3" transform="translate(968.26 269.6) scale(1.11 1)">JADA <tspan x="0" y="128.76">BURGER</tspan></text><text class="cls-4" transform="translate(996.4 468.98) scale(1.08 1)">HAMBURGUESAS AND <tspan x="0" y="54.29">ALITAS</tspan></text></svg>